<mxfile host="app.diagrams.net" modified="2023-12-05T03:59:34.776Z" agent="Mozilla/5.0 (Windows NT 10.0; Win64; x64) AppleWebKit/537.36 (KHTML, like Gecko) Chrome/119.0.0.0 Safari/537.36" etag="mlRv6uJZvnQktOfe007H" version="22.1.5" type="device">
  <diagram name="Page-1" id="f1b7ffb7-ca1e-a977-7cf5-a751b3c06c05">
    <mxGraphModel dx="2390" dy="2469" grid="1" gridSize="10" guides="1" tooltips="1" connect="1" arrows="1" fold="1" page="1" pageScale="1" pageWidth="826" pageHeight="1169" background="none" math="0" shadow="0">
      <root>
        <mxCell id="0" />
        <mxCell id="1" parent="0" />
        <mxCell id="iEEB0pDzUWPU5OFboOjR-75" value="" style="verticalLabelPosition=bottom;verticalAlign=top;strokeWidth=1;shape=mxgraph.mockup.graphics.iconGrid;strokeColor=#CCCCCC;gridSize=1,1;" parent="1" vertex="1">
          <mxGeometry x="3" y="-1169" width="820" height="179" as="geometry" />
        </mxCell>
        <mxCell id="13" value="" style="verticalLabelPosition=bottom;verticalAlign=top;strokeWidth=1;shape=mxgraph.mockup.graphics.iconGrid;strokeColor=#CCCCCC;gridSize=1,1;" parent="1" vertex="1">
          <mxGeometry x="32" y="1410" width="570" height="480" as="geometry" />
        </mxCell>
        <mxCell id="3" value="" style="line;strokeWidth=1" parent="1" vertex="1">
          <mxGeometry y="-995" width="820" height="10" as="geometry" />
        </mxCell>
        <mxCell id="4" value="" style="line;strokeWidth=1" parent="1" vertex="1">
          <mxGeometry y="-945" width="820" height="10" as="geometry" />
        </mxCell>
        <mxCell id="5" value="Summary" style="text;spacingTop=-5;align=center;" parent="1" vertex="1">
          <mxGeometry x="68" y="-975" width="52" height="20" as="geometry" />
        </mxCell>
        <mxCell id="8" value="Article 1" style="text;spacingTop=-5;" parent="1" vertex="1">
          <mxGeometry x="32" y="1410" width="30" height="20" as="geometry" />
        </mxCell>
        <mxCell id="9" value="Lorem ipsum dolor sit amet, consectetur adipisicing elit, sed do eiusmod tempor incididunt ut labore et dolore magna aliqua. Ut enim ad minim veniam, quis nostrud exercitation ullamco laboris nisi ut aliquip ex ea commodo consequat. Duis aute irure dolor in reprehenderit in voluptate velit esse cillum dolore eu fugiat nulla pariatur. Excepteur sint occaecat cupidatat non proident, sunt in culpa qui officia deserunt mollit anim id est laborum.&#xa;Sed ut perspiciatis unde omnis iste natus error sit voluptatem accusantium doloremque laudantium, totam rem aperiam, eaque ipsa quae ab illo inventore veritatis et quasi architecto beatae vitae dicta sunt explicabo. Nemo enim ipsam voluptatem quia voluptas sit aspernatur aut odit aut fugit, sed quia consequuntur magni dolores eos qui ratione voluptatem sequi nesciunt. Neque porro quisquam est, qui dolorem ipsum quia dolor sit amet, consectetur, adipisci velit, sed quia non numquam eius modi tempora incidunt ut labore et dolore magnam aliquam quaerat voluptatem. Ut enim ad minima veniam, quis nostrum exercitationem ullam corporis suscipit laboriosam, nisi ut aliquid ex ea commodi consequatur? Quis autem vel eum iure reprehenderit qui in ea voluptate velit esse quam nihil molestiae consequatur, vel illum qui dolorem eum fugiat quo voluptas nulla pariatur?" style="text;spacingTop=-5;whiteSpace=wrap;align=left" parent="1" vertex="1">
          <mxGeometry x="32" y="1440" width="530" height="250" as="geometry" />
        </mxCell>
        <mxCell id="11" value="Spring, 2024" style="text;spacingTop=-5;" parent="1" vertex="1">
          <mxGeometry x="377" y="-1050" width="72" height="20" as="geometry" />
        </mxCell>
        <mxCell id="20" value="" style="verticalLabelPosition=bottom;verticalAlign=top;strokeWidth=1;shape=mxgraph.mockup.graphics.iconGrid;strokeColor=#CCCCCC;gridSize=1,1;" parent="1" vertex="1">
          <mxGeometry x="3" y="-985" width="40" height="40" as="geometry" />
        </mxCell>
        <mxCell id="21" value="Blog &#xa;Logo" style="text;spacingTop=-5;align=center" parent="1" vertex="1">
          <mxGeometry x="3" y="-985" width="40" height="40" as="geometry" />
        </mxCell>
        <mxCell id="25" value="" style="verticalLabelPosition=bottom;verticalAlign=top;strokeWidth=1;shape=mxgraph.mockup.graphics.iconGrid;strokeColor=#CCCCCC;gridSize=1,1;" parent="1" vertex="1">
          <mxGeometry x="112" y="1660" width="360" height="200" as="geometry" />
        </mxCell>
        <mxCell id="26" value="Article&#xa;Picture" style="text;spacingTop=-5;align=center;verticalAlign=middle;fontSize=36;fontColor=#CCCCCC" parent="1" vertex="1">
          <mxGeometry x="112" y="1660" width="360" height="200" as="geometry" />
        </mxCell>
        <mxCell id="28" value="Article 2" style="text;spacingTop=-5;" parent="1" vertex="1">
          <mxGeometry x="32" y="1910" width="30" height="20" as="geometry" />
        </mxCell>
        <mxCell id="37" value="" style="verticalLabelPosition=bottom;verticalAlign=top;strokeWidth=1;shape=mxgraph.mockup.misc.rating;strokeColor=#999999;fillColor=#ffff00;emptyFillColor=#ffffff;grade=4;ratingScale=5;ratingStyle=star;" parent="1" vertex="1">
          <mxGeometry x="522" y="1875.0000000000002" width="77.5" height="10" as="geometry" />
        </mxCell>
        <mxCell id="38" value="Rate this article" style="text;spacingTop=-5;" parent="1" vertex="1">
          <mxGeometry x="422.0000000000001" y="1870" width="30" height="20" as="geometry" />
        </mxCell>
        <mxCell id="41" value="" style="verticalLabelPosition=bottom;verticalAlign=top;strokeWidth=1;shape=mxgraph.mockup.misc.rating;strokeColor=#999999;fillColor=#ffff00;emptyFillColor=#ffffff;grade=4;ratingScale=5;ratingStyle=star;" parent="1" vertex="1">
          <mxGeometry x="503.99999999999994" y="2030" width="77.5" height="10" as="geometry" />
        </mxCell>
        <mxCell id="42" value="Rate this article" style="text;spacingTop=-5;" parent="1" vertex="1">
          <mxGeometry x="404.00000000000006" y="2025" width="30" height="20" as="geometry" />
        </mxCell>
        <mxCell id="47" value="Tags: Tag1 Tag2 Tag3 Tag4" style="text;spacingTop=-5;" parent="1" vertex="1">
          <mxGeometry x="32" y="1870.0000000000002" width="210" height="20" as="geometry" />
        </mxCell>
        <mxCell id="48" value="Tags: Tag1 Tag2 Tag3 Tag4" style="text;spacingTop=-5;" parent="1" vertex="1">
          <mxGeometry x="14" y="2025" width="210" height="20" as="geometry" />
        </mxCell>
        <mxCell id="iEEB0pDzUWPU5OFboOjR-80" value="Blog Name" style="text;spacingTop=-5;fontSize=18;fontStyle=0;align=center;" parent="1" vertex="1">
          <mxGeometry x="298" y="-1089.5" width="230" height="20" as="geometry" />
        </mxCell>
        <mxCell id="iEEB0pDzUWPU5OFboOjR-82" value="Education" style="text;spacingTop=-5;align=center;" parent="1" vertex="1">
          <mxGeometry x="160" y="-975" width="52" height="20" as="geometry" />
        </mxCell>
        <mxCell id="iEEB0pDzUWPU5OFboOjR-83" value="Work experience" style="text;spacingTop=-5;align=center;" parent="1" vertex="1">
          <mxGeometry x="254" y="-975" width="88" height="20" as="geometry" />
        </mxCell>
        <mxCell id="iEEB0pDzUWPU5OFboOjR-84" value="Projects" style="text;spacingTop=-5;align=center;" parent="1" vertex="1">
          <mxGeometry x="384" y="-975" width="52" height="20" as="geometry" />
        </mxCell>
        <mxCell id="iEEB0pDzUWPU5OFboOjR-85" value="Skills &amp; Achievements" style="text;spacingTop=-5;align=center;" parent="1" vertex="1">
          <mxGeometry x="487.75" y="-975" width="122" height="20" as="geometry" />
        </mxCell>
        <mxCell id="iEEB0pDzUWPU5OFboOjR-92" value="&lt;h1&gt;SUMMARY&lt;/h1&gt;&lt;p&gt;Sed ut perspiciatis unde omnis iste natus error sit voluptatem accusantium doloremque laudantium, totam rem aperiam, eaque ipsa quae ab illo inventore veritatis et quasi architecto beatae vitae dicta sunt explicabo. Nemo enim ipsam voluptatem quia voluptas sit aspernatur aut odit aut fugit, sed quia consequuntur magni dolores eos qui ratione voluptatem sequi nesciunt. Neque porro quisquam est, qui dolorem ipsum quia dolor sit amet, consectetur, adipisci velit, sed quia non numquam eius modi tempora incidunt ut labore et dolore magnam aliquam quaerat voluptatem. Ut enim ad minima veniam, quis nostrum exercitationem ullam corporis suscipit laboriosam, nisi ut aliquid ex ea commodi consequatur? Quis autem vel eum iure reprehenderit qui in ea voluptate velit esse quam nihil molestiae consequatur, vel illum qui dolorem eum fugiat quo voluptas nulla pariatur?&lt;br&gt;&lt;/p&gt;" style="text;html=1;strokeColor=none;fillColor=none;spacing=5;spacingTop=-20;whiteSpace=wrap;overflow=hidden;rounded=0;" parent="1" vertex="1">
          <mxGeometry x="78" y="-840" width="660" height="200" as="geometry" />
        </mxCell>
        <mxCell id="iEEB0pDzUWPU5OFboOjR-126" value="" style="group" parent="1" vertex="1" connectable="0">
          <mxGeometry x="80" y="-570" width="720" height="80.00054735407666" as="geometry" />
        </mxCell>
        <mxCell id="iEEB0pDzUWPU5OFboOjR-88" value="EDUCATION" style="text;strokeColor=none;fillColor=none;html=1;fontSize=24;fontStyle=1;verticalAlign=middle;align=center;" parent="iEEB0pDzUWPU5OFboOjR-126" vertex="1">
          <mxGeometry width="140" height="33.86" as="geometry" />
        </mxCell>
        <mxCell id="iEEB0pDzUWPU5OFboOjR-90" value="&lt;ul style=&quot;font-size: 16px;&quot;&gt;&lt;li&gt;Education XXX&lt;/li&gt;&lt;/ul&gt;" style="text;strokeColor=none;fillColor=none;html=1;whiteSpace=wrap;verticalAlign=middle;overflow=hidden;" parent="iEEB0pDzUWPU5OFboOjR-126" vertex="1">
          <mxGeometry y="37.67195767195767" width="720" height="42.32804232804233" as="geometry" />
        </mxCell>
        <mxCell id="YBDJlbpEpYIo4QEF9m6U-58" value="xxxx - xxxx" style="text;html=1;strokeColor=none;fillColor=none;align=center;verticalAlign=middle;whiteSpace=wrap;rounded=0;" vertex="1" parent="iEEB0pDzUWPU5OFboOjR-126">
          <mxGeometry x="570.0011111111111" y="40.75457869634329" width="69.84444444444445" height="39.24596865773337" as="geometry" />
        </mxCell>
        <mxCell id="iEEB0pDzUWPU5OFboOjR-127" value="" style="group" parent="1" vertex="1" connectable="0">
          <mxGeometry x="79" y="-371" width="453" height="440" as="geometry" />
        </mxCell>
        <mxCell id="iEEB0pDzUWPU5OFboOjR-91" value="WORK EXPERIENCES" style="text;strokeColor=none;fillColor=none;html=1;fontSize=24;fontStyle=1;verticalAlign=middle;align=center;" parent="iEEB0pDzUWPU5OFboOjR-127" vertex="1">
          <mxGeometry x="3" width="257" height="38.94" as="geometry" />
        </mxCell>
        <mxCell id="iEEB0pDzUWPU5OFboOjR-97" value="" style="group" parent="iEEB0pDzUWPU5OFboOjR-127" vertex="1" connectable="0">
          <mxGeometry x="3" y="177.16814159292034" width="450" height="126.54867256637168" as="geometry" />
        </mxCell>
        <mxCell id="iEEB0pDzUWPU5OFboOjR-93" value="&lt;ul style=&quot;font-size: 13px;&quot;&gt;&lt;li&gt;Value 1&lt;/li&gt;&lt;li&gt;Value 2&lt;/li&gt;&lt;li&gt;Value 3&lt;/li&gt;&lt;/ul&gt;" style="text;strokeColor=none;fillColor=none;html=1;whiteSpace=wrap;verticalAlign=middle;overflow=hidden;" parent="iEEB0pDzUWPU5OFboOjR-97" vertex="1">
          <mxGeometry y="48.67256637168141" width="450" height="77.87610619469027" as="geometry" />
        </mxCell>
        <mxCell id="iEEB0pDzUWPU5OFboOjR-94" value="&lt;font style=&quot;font-size: 16px;&quot;&gt;List Item2&lt;/font&gt;" style="text;strokeColor=none;fillColor=none;align=left;verticalAlign=middle;spacingLeft=4;spacingRight=4;overflow=hidden;points=[[0,0.5],[1,0.5]];portConstraint=eastwest;rotatable=0;whiteSpace=wrap;html=1;" parent="iEEB0pDzUWPU5OFboOjR-97" vertex="1">
          <mxGeometry x="3" width="145" height="38.93805309734513" as="geometry" />
        </mxCell>
        <mxCell id="iEEB0pDzUWPU5OFboOjR-96" value="xxxx - xxxx" style="text;html=1;strokeColor=none;fillColor=none;align=center;verticalAlign=middle;whiteSpace=wrap;rounded=0;" parent="iEEB0pDzUWPU5OFboOjR-97" vertex="1">
          <mxGeometry x="22" y="29.20353982300885" width="70" height="29.20353982300885" as="geometry" />
        </mxCell>
        <mxCell id="iEEB0pDzUWPU5OFboOjR-98" value="" style="group" parent="iEEB0pDzUWPU5OFboOjR-127" vertex="1" connectable="0">
          <mxGeometry y="38.93805309734513" width="450" height="126.54867256637168" as="geometry" />
        </mxCell>
        <mxCell id="iEEB0pDzUWPU5OFboOjR-99" value="&lt;ul style=&quot;font-size: 13px;&quot;&gt;&lt;li&gt;Value 1&lt;/li&gt;&lt;li&gt;Value 2&lt;/li&gt;&lt;li&gt;Value 3&lt;/li&gt;&lt;/ul&gt;" style="text;strokeColor=none;fillColor=none;html=1;whiteSpace=wrap;verticalAlign=middle;overflow=hidden;" parent="iEEB0pDzUWPU5OFboOjR-98" vertex="1">
          <mxGeometry y="48.67256637168141" width="450" height="77.87610619469027" as="geometry" />
        </mxCell>
        <mxCell id="iEEB0pDzUWPU5OFboOjR-100" value="&lt;font style=&quot;font-size: 16px;&quot;&gt;List Item1&lt;/font&gt;" style="text;strokeColor=none;fillColor=none;align=left;verticalAlign=middle;spacingLeft=4;spacingRight=4;overflow=hidden;points=[[0,0.5],[1,0.5]];portConstraint=eastwest;rotatable=0;whiteSpace=wrap;html=1;" parent="iEEB0pDzUWPU5OFboOjR-98" vertex="1">
          <mxGeometry x="3" width="145" height="38.93805309734513" as="geometry" />
        </mxCell>
        <mxCell id="iEEB0pDzUWPU5OFboOjR-101" value="xxxx - xxxx" style="text;html=1;strokeColor=none;fillColor=none;align=center;verticalAlign=middle;whiteSpace=wrap;rounded=0;" parent="iEEB0pDzUWPU5OFboOjR-98" vertex="1">
          <mxGeometry x="22" y="29.20353982300885" width="70" height="29.20353982300885" as="geometry" />
        </mxCell>
        <mxCell id="iEEB0pDzUWPU5OFboOjR-102" value="" style="group" parent="iEEB0pDzUWPU5OFboOjR-127" vertex="1" connectable="0">
          <mxGeometry x="2" y="313.4513274336283" width="450" height="126.54867256637168" as="geometry" />
        </mxCell>
        <mxCell id="iEEB0pDzUWPU5OFboOjR-103" value="&lt;ul style=&quot;font-size: 13px;&quot;&gt;&lt;li&gt;Value 1&lt;/li&gt;&lt;li&gt;Value 2&lt;/li&gt;&lt;li&gt;Value 3&lt;/li&gt;&lt;/ul&gt;" style="text;strokeColor=none;fillColor=none;html=1;whiteSpace=wrap;verticalAlign=middle;overflow=hidden;" parent="iEEB0pDzUWPU5OFboOjR-102" vertex="1">
          <mxGeometry y="48.67256637168141" width="450" height="77.87610619469027" as="geometry" />
        </mxCell>
        <mxCell id="iEEB0pDzUWPU5OFboOjR-104" value="&lt;font style=&quot;font-size: 16px;&quot;&gt;List Item3&lt;/font&gt;" style="text;strokeColor=none;fillColor=none;align=left;verticalAlign=middle;spacingLeft=4;spacingRight=4;overflow=hidden;points=[[0,0.5],[1,0.5]];portConstraint=eastwest;rotatable=0;whiteSpace=wrap;html=1;" parent="iEEB0pDzUWPU5OFboOjR-102" vertex="1">
          <mxGeometry x="3" width="145" height="38.93805309734513" as="geometry" />
        </mxCell>
        <mxCell id="iEEB0pDzUWPU5OFboOjR-105" value="xxxx - xxxx" style="text;html=1;strokeColor=none;fillColor=none;align=center;verticalAlign=middle;whiteSpace=wrap;rounded=0;" parent="iEEB0pDzUWPU5OFboOjR-102" vertex="1">
          <mxGeometry x="22" y="29.20353982300885" width="70" height="29.20353982300885" as="geometry" />
        </mxCell>
        <mxCell id="iEEB0pDzUWPU5OFboOjR-128" value="" style="group" parent="1" vertex="1" connectable="0">
          <mxGeometry x="80" y="161" width="452" height="480" as="geometry" />
        </mxCell>
        <mxCell id="iEEB0pDzUWPU5OFboOjR-108" value="PERSONAL PROJECTS" style="text;strokeColor=none;fillColor=none;html=1;fontSize=24;fontStyle=1;verticalAlign=middle;align=center;" parent="iEEB0pDzUWPU5OFboOjR-128" vertex="1">
          <mxGeometry x="2" width="268" height="39.18" as="geometry" />
        </mxCell>
        <mxCell id="iEEB0pDzUWPU5OFboOjR-113" value="" style="group" parent="iEEB0pDzUWPU5OFboOjR-128" vertex="1" connectable="0">
          <mxGeometry x="3" y="58.775510204081634" width="449" height="205.71428571428572" as="geometry" />
        </mxCell>
        <mxCell id="iEEB0pDzUWPU5OFboOjR-114" value="&lt;ul style=&quot;font-size: 13px;&quot;&gt;&lt;li&gt;Value 1&lt;/li&gt;&lt;ul&gt;&lt;li&gt;Value 1.1&lt;/li&gt;&lt;/ul&gt;&lt;li&gt;Value 2&lt;/li&gt;&lt;ul&gt;&lt;li&gt;Value 2.1&lt;/li&gt;&lt;/ul&gt;&lt;li&gt;Value 3&lt;/li&gt;&lt;ul&gt;&lt;li&gt;Value 3.1&lt;/li&gt;&lt;/ul&gt;&lt;/ul&gt;" style="text;strokeColor=none;fillColor=none;html=1;whiteSpace=wrap;verticalAlign=middle;overflow=hidden;" parent="iEEB0pDzUWPU5OFboOjR-113" vertex="1">
          <mxGeometry y="60.504201680672274" width="449" height="145.21008403361347" as="geometry" />
        </mxCell>
        <mxCell id="iEEB0pDzUWPU5OFboOjR-115" value="&lt;font style=&quot;font-size: 16px;&quot;&gt;List Item1&lt;/font&gt;" style="text;strokeColor=none;fillColor=none;align=left;verticalAlign=middle;spacingLeft=4;spacingRight=4;overflow=hidden;points=[[0,0.5],[1,0.5]];portConstraint=eastwest;rotatable=0;whiteSpace=wrap;html=1;" parent="iEEB0pDzUWPU5OFboOjR-113" vertex="1">
          <mxGeometry x="2.993333333333333" width="144.67777777777778" height="48.40336134453782" as="geometry" />
        </mxCell>
        <mxCell id="iEEB0pDzUWPU5OFboOjR-116" value="xxxx - xxxx" style="text;html=1;strokeColor=none;fillColor=none;align=center;verticalAlign=middle;whiteSpace=wrap;rounded=0;" parent="iEEB0pDzUWPU5OFboOjR-113" vertex="1">
          <mxGeometry x="21.95111111111111" y="36.30252100840337" width="69.84444444444445" height="36.30252100840337" as="geometry" />
        </mxCell>
        <mxCell id="iEEB0pDzUWPU5OFboOjR-121" value="" style="group" parent="iEEB0pDzUWPU5OFboOjR-128" vertex="1" connectable="0">
          <mxGeometry y="274.2857142857143" width="449" height="205.71428571428572" as="geometry" />
        </mxCell>
        <mxCell id="iEEB0pDzUWPU5OFboOjR-122" value="&lt;ul style=&quot;font-size: 13px;&quot;&gt;&lt;li&gt;Value 1&lt;/li&gt;&lt;ul&gt;&lt;li&gt;Value 1.1&lt;/li&gt;&lt;/ul&gt;&lt;li&gt;Value 2&lt;/li&gt;&lt;ul&gt;&lt;li&gt;Value 2.1&lt;/li&gt;&lt;/ul&gt;&lt;li&gt;Value 3&lt;/li&gt;&lt;ul&gt;&lt;li&gt;Value 3.1&lt;/li&gt;&lt;/ul&gt;&lt;/ul&gt;" style="text;strokeColor=none;fillColor=none;html=1;whiteSpace=wrap;verticalAlign=middle;overflow=hidden;" parent="iEEB0pDzUWPU5OFboOjR-121" vertex="1">
          <mxGeometry y="60.504201680672274" width="449" height="145.21008403361347" as="geometry" />
        </mxCell>
        <mxCell id="iEEB0pDzUWPU5OFboOjR-123" value="&lt;font style=&quot;font-size: 16px;&quot;&gt;List Item2&lt;/font&gt;" style="text;strokeColor=none;fillColor=none;align=left;verticalAlign=middle;spacingLeft=4;spacingRight=4;overflow=hidden;points=[[0,0.5],[1,0.5]];portConstraint=eastwest;rotatable=0;whiteSpace=wrap;html=1;" parent="iEEB0pDzUWPU5OFboOjR-121" vertex="1">
          <mxGeometry x="2.993333333333333" width="144.67777777777778" height="48.40336134453782" as="geometry" />
        </mxCell>
        <mxCell id="iEEB0pDzUWPU5OFboOjR-124" value="xxxx - xxxx" style="text;html=1;strokeColor=none;fillColor=none;align=center;verticalAlign=middle;whiteSpace=wrap;rounded=0;" parent="iEEB0pDzUWPU5OFboOjR-121" vertex="1">
          <mxGeometry x="21.95111111111111" y="36.30252100840337" width="69.84444444444445" height="36.30252100840337" as="geometry" />
        </mxCell>
        <mxCell id="iEEB0pDzUWPU5OFboOjR-131" value="" style="group" parent="1" vertex="1" connectable="0">
          <mxGeometry x="79" y="765" width="639" height="200" as="geometry" />
        </mxCell>
        <mxCell id="iEEB0pDzUWPU5OFboOjR-125" value="Skills and Achievements" style="text;strokeColor=none;fillColor=none;html=1;fontSize=24;fontStyle=1;verticalAlign=middle;align=center;" parent="iEEB0pDzUWPU5OFboOjR-131" vertex="1">
          <mxGeometry x="1" width="282" height="43.24324324324324" as="geometry" />
        </mxCell>
        <mxCell id="iEEB0pDzUWPU5OFboOjR-130" value="&lt;ul style=&quot;font-size: 16px;&quot;&gt;&lt;li&gt;Value 1&lt;/li&gt;&lt;li&gt;Value 2&lt;/li&gt;&lt;li&gt;Value 3&lt;/li&gt;&lt;/ul&gt;" style="text;strokeColor=none;fillColor=none;html=1;whiteSpace=wrap;verticalAlign=middle;overflow=hidden;" parent="iEEB0pDzUWPU5OFboOjR-131" vertex="1">
          <mxGeometry y="70.27027027027027" width="220" height="129.72972972972974" as="geometry" />
        </mxCell>
        <mxCell id="iEEB0pDzUWPU5OFboOjR-133" value="xxxx - xxxx" style="text;html=1;strokeColor=none;fillColor=none;align=center;verticalAlign=middle;whiteSpace=wrap;rounded=0;" parent="iEEB0pDzUWPU5OFboOjR-131" vertex="1">
          <mxGeometry x="561.0011111111111" y="86.4845786963434" width="69.84444444444445" height="39.24596865773337" as="geometry" />
        </mxCell>
        <mxCell id="iEEB0pDzUWPU5OFboOjR-134" value="xxxx - xxxx" style="text;html=1;strokeColor=none;fillColor=none;align=center;verticalAlign=middle;whiteSpace=wrap;rounded=0;" parent="iEEB0pDzUWPU5OFboOjR-131" vertex="1">
          <mxGeometry x="561.0011111111111" y="121.51160572337045" width="69.84444444444445" height="39.24596865773337" as="geometry" />
        </mxCell>
        <mxCell id="iEEB0pDzUWPU5OFboOjR-135" value="xxxx - xxxx" style="text;html=1;strokeColor=none;fillColor=none;align=center;verticalAlign=middle;whiteSpace=wrap;rounded=0;" parent="iEEB0pDzUWPU5OFboOjR-131" vertex="1">
          <mxGeometry x="561.0011111111111" y="160.75484896661368" width="69.84444444444445" height="39.24596865773337" as="geometry" />
        </mxCell>
        <mxCell id="iEEB0pDzUWPU5OFboOjR-142" value="" style="shape=rect;fillColor=#ffffff;strokeColor=#eeeeee;shadow=0;" parent="1" vertex="1">
          <mxGeometry y="1126" width="820" height="40" as="geometry" />
        </mxCell>
        <mxCell id="iEEB0pDzUWPU5OFboOjR-143" value="BUTTON" style="shape=rect;strokeColor=none;fillColor=none;fontSize=12;fontColor=#2196F3;dashed=0;whiteSpace=wrap;html=1;" parent="iEEB0pDzUWPU5OFboOjR-142" vertex="1">
          <mxGeometry width="204.99999999999997" height="40" as="geometry" />
        </mxCell>
        <mxCell id="iEEB0pDzUWPU5OFboOjR-144" value="BUTTON" style="shape=rect;strokeColor=none;fillColor=none;fontSize=12;fontColor=#2196F3;dashed=0;whiteSpace=wrap;html=1;" parent="iEEB0pDzUWPU5OFboOjR-142" vertex="1">
          <mxGeometry x="204.99999999999997" width="204.99999999999997" height="40" as="geometry" />
        </mxCell>
        <mxCell id="iEEB0pDzUWPU5OFboOjR-145" value="BUTTON" style="shape=rect;strokeColor=none;fillColor=none;fontSize=12;fontColor=#2196F3;dashed=0;whiteSpace=wrap;html=1;" parent="iEEB0pDzUWPU5OFboOjR-142" vertex="1">
          <mxGeometry x="409.99999999999994" width="204.99999999999997" height="40" as="geometry" />
        </mxCell>
        <mxCell id="iEEB0pDzUWPU5OFboOjR-146" value="BUTTON" style="shape=rect;strokeColor=none;fillColor=none;fontSize=12;fontColor=#2196F3;dashed=0;whiteSpace=wrap;html=1;" parent="iEEB0pDzUWPU5OFboOjR-142" vertex="1">
          <mxGeometry x="615" width="204.99999999999997" height="40" as="geometry" />
        </mxCell>
        <mxCell id="YBDJlbpEpYIo4QEF9m6U-48" value="" style="dashed=0;outlineConnect=0;html=1;align=center;labelPosition=center;verticalLabelPosition=bottom;verticalAlign=top;shape=mxgraph.webicons.linkedin;fillColor=#0095DB;gradientColor=#006391" vertex="1" parent="1">
          <mxGeometry x="302.5" y="1046" width="39.5" height="40" as="geometry" />
        </mxCell>
        <mxCell id="YBDJlbpEpYIo4QEF9m6U-49" value="" style="dashed=0;outlineConnect=0;html=1;align=center;labelPosition=center;verticalLabelPosition=bottom;verticalAlign=top;shape=mxgraph.webicons.gmail;gradientColor=#DFDEDE" vertex="1" parent="1">
          <mxGeometry x="393" y="1046" width="40" height="40" as="geometry" />
        </mxCell>
        <mxCell id="YBDJlbpEpYIo4QEF9m6U-50" value="" style="shape=image;html=1;verticalAlign=top;verticalLabelPosition=bottom;labelBackgroundColor=#ffffff;imageAspect=0;aspect=fixed;image=https://cdn3.iconfinder.com/data/icons/2018-social-media-logotypes/1000/2018_social_media_popular_app_logo_facebook-128.png" vertex="1" parent="1">
          <mxGeometry x="483" y="1046" width="39" height="39" as="geometry" />
        </mxCell>
        <mxCell id="YBDJlbpEpYIo4QEF9m6U-51" value="CONTACT" style="text;strokeColor=none;fillColor=none;html=1;fontSize=24;fontStyle=1;verticalAlign=middle;align=center;" vertex="1" parent="1">
          <mxGeometry x="308" y="979" width="210" height="39.183673469387756" as="geometry" />
        </mxCell>
      </root>
    </mxGraphModel>
  </diagram>
</mxfile>
